<svg id="visual" viewBox="0 0 900 600" width="900" height="600" xmlns="http://www.w3.org/2000/svg" xmlns:xlink="http://www.w3.org/1999/xlink" version="1.1"><rect x="0" y="0" width="900" height="600" fill="#0593ff"></rect><defs><linearGradient id="grad1_0" x1="33.3%" y1="0%" x2="100%" y2="100%"><stop offset="20%" stop-color="#fbae3c" stop-opacity="1"></stop><stop offset="80%" stop-color="#fbae3c" stop-opacity="1"></stop></linearGradient></defs><defs><linearGradient id="grad1_1" x1="33.3%" y1="0%" x2="100%" y2="100%"><stop offset="20%" stop-color="#fbae3c" stop-opacity="1"></stop><stop offset="80%" stop-color="#ff8b63" stop-opacity="1"></stop></linearGradient></defs><defs><linearGradient id="grad1_2" x1="33.3%" y1="0%" x2="100%" y2="100%"><stop offset="20%" stop-color="#ff7297" stop-opacity="1"></stop><stop offset="80%" stop-color="#ff8b63" stop-opacity="1"></stop></linearGradient></defs><defs><linearGradient id="grad1_3" x1="33.3%" y1="0%" x2="100%" y2="100%"><stop offset="20%" stop-color="#ff7297" stop-opacity="1"></stop><stop offset="80%" stop-color="#f772cc" stop-opacity="1"></stop></linearGradient></defs><defs><linearGradient id="grad1_4" x1="33.3%" y1="0%" x2="100%" y2="100%"><stop offset="20%" stop-color="#b083f4" stop-opacity="1"></stop><stop offset="80%" stop-color="#f772cc" stop-opacity="1"></stop></linearGradient></defs><defs><linearGradient id="grad1_5" x1="33.3%" y1="0%" x2="100%" y2="100%"><stop offset="20%" stop-color="#b083f4" stop-opacity="1"></stop><stop offset="80%" stop-color="#0593ff" stop-opacity="1"></stop></linearGradient></defs><defs><linearGradient id="grad2_0" x1="0%" y1="0%" x2="66.7%" y2="100%"><stop offset="20%" stop-color="#fbae3c" stop-opacity="1"></stop><stop offset="80%" stop-color="#fbae3c" stop-opacity="1"></stop></linearGradient></defs><defs><linearGradient id="grad2_1" x1="0%" y1="0%" x2="66.7%" y2="100%"><stop offset="20%" stop-color="#ff8b63" stop-opacity="1"></stop><stop offset="80%" stop-color="#fbae3c" stop-opacity="1"></stop></linearGradient></defs><defs><linearGradient id="grad2_2" x1="0%" y1="0%" x2="66.7%" y2="100%"><stop offset="20%" stop-color="#ff8b63" stop-opacity="1"></stop><stop offset="80%" stop-color="#ff7297" stop-opacity="1"></stop></linearGradient></defs><defs><linearGradient id="grad2_3" x1="0%" y1="0%" x2="66.7%" y2="100%"><stop offset="20%" stop-color="#f772cc" stop-opacity="1"></stop><stop offset="80%" stop-color="#ff7297" stop-opacity="1"></stop></linearGradient></defs><defs><linearGradient id="grad2_4" x1="0%" y1="0%" x2="66.7%" y2="100%"><stop offset="20%" stop-color="#f772cc" stop-opacity="1"></stop><stop offset="80%" stop-color="#b083f4" stop-opacity="1"></stop></linearGradient></defs><defs><linearGradient id="grad2_5" x1="0%" y1="0%" x2="66.7%" y2="100%"><stop offset="20%" stop-color="#0593ff" stop-opacity="1"></stop><stop offset="80%" stop-color="#b083f4" stop-opacity="1"></stop></linearGradient></defs><g transform="translate(900, 0)"><path d="M0 486.7C-26.3 472.3 -52.6 457.8 -80.1 454C-107.5 450.2 -136 457.1 -164.5 452C-193 446.9 -221.4 429.8 -222.5 385.4C-223.6 340.9 -197.3 269.1 -207 246.7C-216.7 224.2 -262.4 251.2 -312.5 262.3C-362.7 273.3 -417.2 268.5 -416.6 240.5C-415.9 212.5 -360.1 161.5 -368.4 134.1C-376.6 106.7 -448.9 102.9 -479.4 84.5C-509.8 66.1 -498.3 33.1 -486.7 0L0 0Z" fill="#7a8cfd"></path><path d="M0 405.6C-21.9 393.6 -43.9 381.5 -66.7 378.3C-89.6 375.2 -113.4 380.9 -137.1 376.7C-160.8 372.4 -184.5 358.2 -185.4 321.2C-186.3 284.1 -164.4 224.2 -172.5 205.6C-180.6 186.9 -218.7 209.3 -260.5 218.5C-302.2 227.8 -347.7 223.7 -347.1 200.4C-346.6 177.1 -300.1 134.6 -307 111.7C-313.8 88.9 -374.1 85.8 -399.5 70.4C-424.8 55.1 -415.2 27.6 -405.6 0L0 0Z" fill="#d87ae3"></path><path d="M0 324.5C-17.5 314.8 -35.1 305.2 -53.4 302.7C-71.7 300.1 -90.7 304.7 -109.7 301.3C-128.7 297.9 -147.6 286.6 -148.3 256.9C-149 227.3 -131.5 179.4 -138 164.4C-144.5 149.5 -174.9 167.5 -208.4 174.8C-241.8 182.2 -278.1 179 -277.7 160.3C-277.3 141.7 -240.1 107.7 -245.6 89.4C-251.1 71.1 -299.3 68.6 -319.6 56.3C-339.8 44.1 -332.2 22 -324.5 0L0 0Z" fill="#ff6fb2"></path><path d="M0 243.4C-13.2 236.1 -26.3 228.9 -40 227C-53.7 225.1 -68 228.5 -82.3 226C-96.5 223.5 -110.7 214.9 -111.2 192.7C-111.8 170.5 -98.6 134.5 -103.5 123.3C-108.3 112.1 -131.2 125.6 -156.3 131.1C-181.3 136.7 -208.6 134.2 -208.3 120.3C-208 106.3 -180.1 80.7 -184.2 67C-188.3 53.3 -224.5 51.5 -239.7 42.3C-254.9 33.1 -249.1 16.5 -243.4 0L0 0Z" fill="#ff7c7c"></path><path d="M0 162.2C-8.8 157.4 -17.5 152.6 -26.7 151.3C-35.8 150.1 -45.3 152.4 -54.8 150.7C-64.3 149 -73.8 143.3 -74.2 128.5C-74.5 113.6 -65.8 89.7 -69 82.2C-72.2 74.7 -87.5 83.7 -104.2 87.4C-120.9 91.1 -139.1 89.5 -138.9 80.2C-138.6 70.8 -120 53.8 -122.8 44.7C-125.5 35.6 -149.6 34.3 -159.8 28.2C-169.9 22 -166.1 11 -162.2 0L0 0Z" fill="#ff9c4d"></path><path d="M0 81.1C-4.4 78.7 -8.8 76.3 -13.3 75.7C-17.9 75 -22.7 76.2 -27.4 75.3C-32.2 74.5 -36.9 71.6 -37.1 64.2C-37.3 56.8 -32.9 44.8 -34.5 41.1C-36.1 37.4 -43.7 41.9 -52.1 43.7C-60.4 45.6 -69.5 44.7 -69.4 40.1C-69.3 35.4 -60 26.9 -61.4 22.3C-62.8 17.8 -74.8 17.2 -79.9 14.1C-85 11 -83 5.5 -81.1 0L0 0Z" fill="#fbae3c"></path></g><g transform="translate(0, 600)"><path d="M0 -486.7C25.9 -474.1 51.8 -461.4 81.3 -460.9C110.7 -460.3 143.6 -471.9 166.5 -457.4C189.3 -442.9 202.1 -402.5 212 -367.2C221.9 -331.9 228.9 -301.9 232 -276.5C235.2 -251.2 234.6 -230.6 274.2 -230.1C313.9 -229.6 393.7 -249.3 394.9 -228C396.1 -206.7 318.6 -144.6 316.7 -115.3C314.8 -85.9 388.4 -89.4 429.4 -75.7C470.3 -62 478.5 -31 486.7 0L0 0Z" fill="#7a8cfd"></path><path d="M0 -405.6C21.6 -395.1 43.2 -384.5 67.7 -384.1C92.2 -383.6 119.7 -393.2 138.7 -381.2C157.8 -369.1 168.4 -335.4 176.7 -306C184.9 -276.6 190.7 -251.6 193.4 -230.5C196 -209.3 195.5 -192.2 228.5 -191.8C261.6 -191.4 328.1 -207.7 329.1 -190C330.1 -172.3 265.5 -120.5 263.9 -96.1C262.3 -71.6 323.7 -74.5 357.8 -63.1C391.9 -51.6 398.8 -25.8 405.6 0L0 0Z" fill="#d87ae3"></path><path d="M0 -324.5C17.3 -316.1 34.6 -307.6 54.2 -307.3C73.8 -306.9 95.7 -314.6 111 -304.9C126.2 -295.3 134.7 -268.3 141.3 -244.8C147.9 -221.3 152.6 -201.2 154.7 -184.4C156.8 -167.5 156.4 -153.7 182.8 -153.4C209.2 -153.1 262.5 -166.2 263.3 -152C264.1 -137.8 212.4 -96.4 211.1 -76.8C209.8 -57.3 259 -59.6 286.3 -50.5C313.5 -41.3 319 -20.7 324.5 0L0 0Z" fill="#ff6fb2"></path><path d="M0 -243.4C13 -237 25.9 -230.7 40.6 -230.4C55.3 -230.2 71.8 -235.9 83.2 -228.7C94.7 -221.5 101.1 -201.2 106 -183.6C110.9 -166 114.4 -150.9 116 -138.3C117.6 -125.6 117.3 -115.3 137.1 -115.1C156.9 -114.8 196.9 -124.6 197.5 -114C198 -103.4 159.3 -72.3 158.3 -57.6C157.4 -43 194.2 -44.7 214.7 -37.9C235.2 -31 239.3 -15.5 243.4 0L0 0Z" fill="#ff7c7c"></path><path d="M0 -162.2C8.6 -158 17.3 -153.8 27.1 -153.6C36.9 -153.4 47.9 -157.3 55.5 -152.5C63.1 -147.6 67.4 -134.2 70.7 -122.4C74 -110.6 76.3 -100.6 77.3 -92.2C78.4 -83.7 78.2 -76.9 91.4 -76.7C104.6 -76.5 131.2 -83.1 131.6 -76C132 -68.9 106.2 -48.2 105.6 -38.4C104.9 -28.6 129.5 -29.8 143.1 -25.2C156.8 -20.7 159.5 -10.3 162.2 0L0 0Z" fill="#ff9c4d"></path><path d="M0 -81.1C4.3 -79 8.6 -76.9 13.5 -76.8C18.4 -76.7 23.9 -78.6 27.7 -76.2C31.6 -73.8 33.7 -67.1 35.3 -61.2C37 -55.3 38.1 -50.3 38.7 -46.1C39.2 -41.9 39.1 -38.4 45.7 -38.4C52.3 -38.3 65.6 -41.5 65.8 -38C66 -34.5 53.1 -24.1 52.8 -19.2C52.5 -14.3 64.7 -14.9 71.6 -12.6C78.4 -10.3 79.8 -5.2 81.1 0L0 0Z" fill="#fbae3c"></path></g></svg> 