<svg xmlns="http://www.w3.org/2000/svg" width="800" height="600" viewBox="0 0 800 600">
  <defs>
    <pattern id="grid" width="40" height="40" patternUnits="userSpaceOnUse">
      <rect width="40" height="40" fill="#212529" />
      <rect width="20" height="20" fill="#2d3135" />
      <rect width="20" height="20" x="20" y="20" fill="#2d3135" />
    </pattern>
    
    <!-- Game elements -->
    <symbol id="pixel-cloud" viewBox="0 0 50 30">
      <path d="M10,20 h30 v10 h10 v-10 h-10 v-10 h-10 v-10 h-10 v10 h-10 v10 h-10 v10 h10 v-10" fill="#e9e9e9" />
    </symbol>
    
    <symbol id="pixel-tree" viewBox="0 0 50 80">
      <rect x="20" y="50" width="10" height="30" fill="#92542b" />
      <path d="M10,50 h30 v-10 h10 v-10 h-10 v-10 h10 v-10 h-10 v-10 h-30 v10 h-10 v10 h10 v10 h-10 v10 h10 v10" fill="#92cc41" />
    </symbol>
    
    <symbol id="pixel-controller" viewBox="0 0 80 40">
      <rect x="10" y="10" width="60" height="20" rx="5" fill="#209cee" />
      <rect x="20" y="5" width="10" height="5" fill="#0068bb" />
      <rect x="50" y="5" width="10" height="5" fill="#0068bb" />
      <circle cx="30" cy="20" r="5" fill="#e76e55" />
      <circle cx="50" cy="20" r="5" fill="#e76e55" />
      <rect x="37" y="18" width="6" height="4" fill="#fff" />
    </symbol>
    
    <symbol id="pixel-star" viewBox="0 0 20 20">
      <path d="M10,0 l2,8 h8 l-6,4 l2,8 l-6,-4 l-6,4 l2,-8 l-6,-4 h8 z" fill="#ffd500" />
    </symbol>
    
    <symbol id="pixel-coin" viewBox="0 0 20 20">
      <circle cx="10" cy="10" r="8" fill="#ffd500" />
      <circle cx="10" cy="10" r="4" fill="#ffb700" />
    </symbol>
  </defs>
  
  <!-- Background -->
  <rect width="100%" height="100%" fill="url(#grid)" />
  
  <!-- Game elements -->
  <use href="#pixel-cloud" x="50" y="50" width="100" height="60" />
  <use href="#pixel-cloud" x="600" y="100" width="150" height="90" />
  <use href="#pixel-tree" x="100" y="400" width="80" height="160" />
  <use href="#pixel-tree" x="650" y="320" width="100" height="200" />
  <use href="#pixel-controller" x="350" y="50" width="120" height="60" />
  <use href="#pixel-controller" x="200" y="500" width="80" height="40" />
  <use href="#pixel-star" x="250" y="200" width="40" height="40" />
  <use href="#pixel-star" x="480" y="350" width="30" height="30" />
  <use href="#pixel-star" x="150" y="120" width="25" height="25" />
  <use href="#pixel-coin" x="300" y="300" width="30" height="30" />
  <use href="#pixel-coin" x="550" y="200" width="25" height="25" />
  <use href="#pixel-coin" x="400" y="470" width="20" height="20" />
  
  <!-- Pixelated gradient overlay -->
  <rect width="100%" height="100%" fill="#212529" opacity="0.1" />
</svg> 